<mxfile host="app.diagrams.net" modified="2024-06-08T16:32:44.487Z" agent="Mozilla/5.0 (Macintosh; Intel Mac OS X 10.15; rv:126.0) Gecko/20100101 Firefox/126.0" version="24.5.2" etag="dzeKMoX0Udvi_fuRNJyh" type="github">
  <diagram name="Page-1" id="4xBs5b-1Es_JzgvI6_-S">
    <mxGraphModel>
      <root>
        <mxCell id="0" />
        <mxCell id="1" parent="0" />
      </root>
    </mxGraphModel>
  </diagram>
</mxfile>
